PathFileType	4	(X/Y/Z)	C:\Users\WrightLab\Desktop\Jo\P5V28.trc
DataRate	CameraRate	NumFrames	NumMarkers	Units	OrigDataRate	OrigDataStartFrame	OrigNumFrames
100.00	100.00	       11	19	mm	100.00	230	       918
Frame#	Time	Headset_Front			Headset_Back			Headset_Left			Headset_Right			Left_Shoulder			Right_Shoulder			Sternum			C7			Left Elbow			Right Elbow			Left Wrist			Right Wrist			Left ASIS			Right ASIS			S2			Left Knee			Right Knee			Left Ankle			Right Ankle			
		X1	Y1	Z1	X2	Y2	Z2	X3	Y3	Z3	X4	Y4	Z4	X5	Y5	Z5	X6	Y6	Z6	X7	Y7	Z7	X8	Y8	Z8	X9	Y9	Z9	X10	Y10	Z10	X11	Y11	Z11	X12	Y12	Z12	X13	Y13	Z13	X14	Y14	Z14	X15	Y15	Z15	X16	Y16	Z16	X17	Y17	Z17	X18	Y18	Z18	X19	Y19	Z19	

230	2.290										-334.29007	1556.19800	-914.36981	-208.63661	1284.94263	-1002.90558							-247.03650	1488.92810	-1203.03101				-543.36426	1174.42932	-1031.43140	61.65337	931.54083	-1096.46912	-519.79144	1090.24927	-806.38220	-80.09512	895.87915	-1013.38391	-347.56757	915.43091	-981.96246	-219.31250	942.55444	-1274.16785	-98.12582	444.69016	-1077.47949	-361.40228	490.92786	-959.62891				-351.02298	75.60610	-1044.27319	
231	2.300										-335.41449	1556.50916	-907.22473	-210.23987	1285.24939	-996.74066							-248.99179	1489.86499	-1196.78931	66.06594	1178.51770	-1159.69019	-545.20593	1176.63696	-1024.37402	60.17682	932.11713	-1088.95862	-522.01324	1090.71973	-798.70941	-81.16034	896.72137	-1007.43420	-350.27185	915.62555	-973.91711	-221.04910	943.07153	-1267.58887	-98.09843	444.45358	-1059.48157	-364.41336	489.17914	-959.19275				-351.02078	75.60722	-1044.27295	
232	2.310										-336.50729	1556.79016	-900.34045	-211.47293	1286.01807	-990.40747							-250.90952	1490.68311	-1190.47546				-547.24976	1176.40393	-1014.93048	58.00107	932.17383	-1085.35876	-523.92413	1091.23621	-790.52063	-81.38728	897.45410	-1001.93524	-352.05554	916.51624	-967.28760	-222.82033	943.82397	-1261.51807	-96.10744	445.32449	-1042.58069	-369.14096	487.88367	-958.36273				-350.55673	75.63599	-1044.45190	
233	2.320										-337.38422	1557.03076	-893.42755	-213.32695	1287.48401	-984.19421							-252.70264	1491.62097	-1184.09973	62.35672	1180.49194	-1149.53064	-548.69342	1177.67578	-1008.21814	56.76224	932.28015	-1080.96460	-526.00659	1092.53198	-783.57581	-82.08379	898.13330	-996.67139	-354.03781	917.65466	-960.43713	-224.39705	944.33813	-1255.12695	-95.75092	446.86624	-1024.51208	-373.33502	486.44904	-957.20227	-88.33347	153.15279	-1389.82605	-350.53122	75.61803	-1044.44470	
234	2.330										-338.22852	1557.47888	-886.92126	-213.64717	1288.09094	-977.52960							-254.49295	1491.99048	-1177.24194	61.58905	1180.32458	-1141.88049	-551.11835	1179.05566	-1000.59863	56.65111	934.81183	-1071.78467	-528.23859	1093.33716	-776.07654	-82.96718	898.82239	-991.31482	-356.54291	918.18646	-953.22235	-225.73260	945.47205	-1248.91492	-94.88847	447.32504	-1007.40094	-377.09195	484.64377	-956.52087				-350.47260	75.80244	-1043.91321	
235	2.340										-338.91373	1558.03699	-880.26184	-215.03154	1287.33350	-970.94434							-256.29599	1492.48059	-1170.92957				-552.53412	1179.62524	-992.67902	54.53352	935.98041	-1066.64331	-529.46008	1094.16101	-768.54425	-84.02872	899.01843	-986.11255	-359.50183	918.39386	-945.26385	-227.25775	946.16022	-1242.80396	-92.99790	449.21710	-990.61658	-381.00610	482.23654	-957.80951	-88.18669	173.57355	-1364.96338	-350.46054	75.78339	-1043.90784	
236	2.350										-339.67062	1558.14478	-873.52246	-214.68823	1288.34814	-963.68286							-257.95154	1493.17249	-1164.44885	58.13762	1180.99292	-1129.64368	-554.07446	1180.96277	-984.92822	54.67279	937.05499	-1060.47510	-531.83856	1094.83936	-760.56964	-84.56416	899.30695	-981.18970	-361.94031	919.57166	-939.33398	-228.74887	947.19366	-1237.59033	-90.93222	451.56686	-973.92322	-385.66333	481.09808	-956.75470	-86.98193	182.01500	-1351.60059	-350.86771	75.71176	-1043.71252	
237	2.360										-340.38284	1558.44983	-866.96246	-215.42609	1287.59241	-956.13654							-259.58939	1493.98596	-1158.30786	56.66310	1182.69446	-1126.88123	-555.59778	1180.95923	-976.83490	51.38460	936.83411	-1054.55127	-533.12500	1095.91687	-753.01654	-84.60865	900.09009	-976.12360	-363.82437	919.98523	-932.08197	-229.89130	947.58612	-1231.17822	-89.45480	453.85428	-958.14966	-389.04727	479.69974	-956.64917	-88.39804	192.58246	-1336.78284	-350.62695	75.60390	-1043.75085	
238	2.370										-340.78632	1558.85059	-859.79279										-261.05273	1494.36548	-1150.94360				-557.31702	1181.54492	-969.47839	51.75977	938.39569	-1047.93530	-534.42706	1096.14343	-745.69635	-84.44855	900.08502	-970.02625	-365.33966	920.31714	-925.93762	-231.15479	947.97540	-1225.51013	-86.71654	457.46326	-943.65833	-392.31970	479.77280	-955.84991				-351.03360	75.68215	-1043.11853	
239	2.380										-341.46634	1559.02112	-853.25244										-262.50180	1495.65662	-1145.62585				-558.61230	1182.48096	-962.21844	50.63486	939.39185	-1041.75354	-536.18164	1097.37732	-738.79987	-84.21641	900.70062	-964.97540	-367.94522	921.10425	-919.49255	-231.83075	949.36975	-1220.25195	-83.57732	461.13693	-929.51764	-394.22403	480.24585	-955.23914				-351.02859	75.68470	-1043.11816	
240	2.390										-341.89771	1559.33679	-846.52673										-263.80801	1496.21252	-1138.83350				-559.90460	1183.29761	-954.69238	50.20190	941.02155	-1035.20972	-537.08997	1097.47156	-731.08136	-84.49955	900.56201	-959.62469	-369.22647	921.32074	-912.95758	-232.50885	949.59460	-1214.12085	-80.83260	464.58109	-916.70874	-395.77109	480.80978	-953.06744				-350.28433	76.33356	-1042.54712	
